<?xml version="1.0" encoding="UTF-8"?> <svg xmlns="http://www.w3.org/2000/svg" xmlns:xlink="http://www.w3.org/1999/xlink" version="1.1" id="Layer_1" x="0px" y="0px" viewBox="0 0 76.1 49.9" style="enable-background:new 0 0 76.1 49.9;" xml:space="preserve"> <style type="text/css"> .st0{fill:#FFFFFF;} </style> <path class="st0" d="M49.1,2l-2.3,4.8C43.1,5.1,38.2,4.9,34,7.3c-2.7,1.7-4.9,4.7-5.2,7.8c-0.1,2.1,0.8,4.4,0.5,6.6 c-0.1,1.1-0.3,2.3-0.9,3.3c-0.7,1.1-1.5,2.1-2.9,2.2c0.3-0.4,2.4-1.4,1.6-6.2c-0.4-1.9-3-6.6-0.4-12.5C29.1,3.1,39.1-3.3,49.1,2z M37.6,11.5c1.3-0.5,2.7-0.5,4.1-0.2c2.6,0.5,4.5,2,5.5,4.3c1,2.4,1.7,4.4,3.4,6.5c0,0.1-2.6-0.4-2.6-0.5c0.7-4.8-3.9-5-5.2-3.2 c1,1,2.6,1.6,3.8,1.4c-0.3,4.8,1.1,9.1,1,9.1c-1.1-0.2-6.1-3.1-7.5-4.3c-2.1,0.4-3.8,1.2-6.3,1.5c-0.1,0,0.4-1.8,0.4-2.7 c0-2.5-1.9-4.8-0.5-7.9C34.5,13.5,35.7,12.1,37.6,11.5z M39.4,10c0.1,0,0.3,0,0.4,0c0-0.2,0.2-1.4,1.2-2.2c1.1-1,2.6-0.9,2.6-0.9 c-1.5-0.4-3-0.5-4.1-0.4L39.4,10z M30,14.3c-0.2,1.4-0.3,2.7-0.1,3.4c0,0,0.2-1.2,0.9-1.9c0.6-0.6,1.4-0.7,1.7-0.7 c0,0,0.2-0.5,0.1-0.5L30,14.3z M32.8,14.1c0.1-0.2,0.2-0.4,0.3-0.6l-2.6-1c-0.2,0.3-0.3,0.8-0.3,1.1L32.8,14.1z M33.5,13l0.4-0.5 l-2.4-1.8c-0.3,0.3-0.5,0.7-0.6,1L33.5,13z M34.3,12.1c0,0,0.5-0.5,0.5-0.5l-2.1-2.4c-0.5,0.4-0.6,0.6-0.9,1L34.3,12.1z M35.5,11.3 c0,0,0.6-0.3,0.6-0.4l-1.5-2.8c-0.6,0.3-1,0.6-1.1,0.7L35.5,11.3z M36.6,10.7l0.7-0.3l-0.9-3.2l-1.3,0.5L36.6,10.7z M37.9,10.2 c0,0,0.7-0.2,0.7-0.2l0.1-3.4c0,0-0.8,0.2-1.5,0.3L37.9,10.2z"></path> <path class="st0" d="M1.3,45.3v2.9c0,0.5,0.2,1.2,1,1.2c0.8,0,1.1-0.5,1.1-1.3v-2.9c0-0.2-0.1-0.3-0.2-0.3H4c-0.1,0-0.2,0.2-0.2,0.3 v2.9c0,1.2-0.7,1.7-1.6,1.7c-0.8,0-1.8-0.4-1.8-1.6v-2.9c0-0.2-0.1-0.3-0.2-0.3h1.3C1.4,45,1.3,45.1,1.3,45.3z M12.6,45.3 c0-0.2-0.1-0.3-0.2-0.3h0.8c-0.1,0-0.2,0.2-0.2,0.3v4.7l-3.2-4v3.5c0,0.2,0.1,0.3,0.2,0.3H9.2c0.1-0.1,0.2-0.2,0.2-0.3v-3.8 c0-0.3,0-0.3-0.1-0.5C9.2,45.1,9.1,45,9,45h1.1l2.5,3.1L12.6,45.3z M19.7,45c-0.1,0-0.2,0.2-0.2,0.3v4.1c0,0.2,0,0.3,0.2,0.3h-1.2 c0.1-0.1,0.2-0.2,0.2-0.3v-4.1c0-0.2-0.1-0.3-0.2-0.3H19.7z M27.8,45.3c0-0.2,0-0.3-0.1-0.3h0.8c-0.2,0.1-0.2,0.2-0.3,0.3 c-0.1,0.3-1.7,4.6-1.7,4.6l-1.9-4.6c-0.1-0.1-0.2-0.3-0.4-0.3h1.5c-0.2,0.1-0.2,0.2-0.1,0.4c0,0.1,1.1,3,1.1,3L27.8,45.3z M35.9,45.6c-0.1-0.2-0.3-0.3-0.5-0.3h-1.1V47h1c0.1,0,0.2-0.1,0.3-0.2v0.8c0-0.1-0.2-0.2-0.3-0.2h-1v2.1l0.9,0c0.6,0,0.8,0,1.1-0.5 l-0.1,0.8h-2.9c0.1-0.1,0.2-0.2,0.2-0.3v-4.1c0-0.2-0.1-0.3-0.2-0.3h2.7L35.9,45.6z M43.2,47.3c0.5,0,0.7,0.4,0.8,0.5l1,1.6 c0.1,0.2,0.4,0.3,0.4,0.3h-0.9c-0.3,0-0.5-0.2-0.6-0.3l-0.8-1.3c-0.2-0.3-0.3-0.6-0.6-0.6h-0.3v1.9c0,0.2,0.1,0.3,0.2,0.3h-1.2 c0.1-0.1,0.2-0.2,0.2-0.3v-4.1c0-0.2-0.1-0.3-0.2-0.3h1.4c1.4,0,1.7,0.7,1.7,1.2C44.3,46.9,43.7,47.3,43.2,47.3z M42.2,45.3v1.8h0.3 c0.5,0,0.9-0.3,0.9-1c0-0.3-0.2-0.9-0.8-0.9C42.6,45.3,42.2,45.3,42.2,45.3z M52.8,48.3c0,0.9-0.8,1.5-1.6,1.5c-0.6,0-1-0.2-1.3-0.3 l0-1.2c0.1,0.5,0.5,1.2,1.2,1.2S52,49,52,48.6c0-0.7-0.6-0.8-1.2-1.1c-0.6-0.4-0.9-0.8-0.9-1.3c0-1,0.8-1.3,1.5-1.3 c0.2,0,0.7,0,1,0.3l0,1c-0.1-0.4-0.5-0.9-1.1-0.9c-0.5,0-0.7,0.4-0.7,0.7c0,0.4,0.3,0.6,0.9,0.9C52.1,47.2,52.8,47.4,52.8,48.3 L52.8,48.3z M59.2,45C59,45,59,45.2,59,45.3v4.1c0,0.2,0,0.3,0.2,0.3H58c0.1-0.1,0.2-0.2,0.2-0.3v-4.1c0-0.2-0.1-0.3-0.2-0.3H59.2z M66.4,45.3v4.1c0,0.2,0.1,0.3,0.2,0.3h-1.2c0.1-0.1,0.2-0.2,0.2-0.3v-4.1l-1,0c-0.2,0-0.3,0.2-0.3,0.3V45h3.6v0.7 c-0.1-0.1-0.2-0.2-0.3-0.3C67.5,45.4,66.9,45.3,66.4,45.3z M76.3,45c-0.2,0.1-0.4,0.2-0.5,0.4l-1,2.1v1.9c0,0.2,0.1,0.3,0.3,0.3 h-1.3c0.1-0.1,0.2-0.2,0.2-0.3v-1.9l-1.3-2.3c-0.1-0.1-0.2-0.3-0.3-0.3h1.5c-0.2,0.1-0.3,0.1-0.1,0.4l0.9,1.7l0.9-1.8 c0.1-0.2,0-0.3-0.1-0.3L76.3,45L76.3,45z M5.4,33.9h1.6c-0.2,0.1-0.3,0.2-0.3,0.4v5.8c0,0.2,0.1,0.3,0.3,0.4H5.2 c0.2-0.1,0.3-0.2,0.3-0.4V35l-0.1,0.2l-2.2,5.5l-2.3-5.3l-0.1-0.3v5c0,0.2,0.1,0.3,0.3,0.4H0c0.1-0.1,0.3-0.2,0.3-0.4v-5.8 C0.3,34.2,0.1,34,0,34h1.6l1.8,4.5L5.4,33.9z M10.1,33.9C10,34,9.9,34.2,9.9,34.4v5.8c0,0.2,0.1,0.3,0.3,0.4H8.5 c0.2-0.1,0.3-0.2,0.3-0.4v-5.8c0-0.2-0.1-0.4-0.3-0.4H10.1z M17.2,35.9c-0.6-1.3-1.6-1.5-2.1-1.5c-1.6,0-2.5,1.2-2.5,2.8 c0,1.3,0.6,3,2.6,3c0.4,0,1.5-0.2,2.1-1.5c0,0-0.1,1.4-0.1,1.4c-0.8,0.5-1.6,0.6-2.3,0.6c-1.8,0-3.4-1.3-3.4-3.4 c0-1.7,1.2-3.4,3.6-3.4c0.8,0,1.5,0.2,2.2,0.5C17.1,34.4,17.3,35.9,17.2,35.9z M22.7,33.9h1.7c-0.2,0.1-0.3,0.2-0.3,0.4v5.8 c0,0.2,0.1,0.3,0.3,0.4h-1.7c0.2-0.1,0.3-0.2,0.3-0.4v-3H20v3c0,0.2,0.1,0.3,0.3,0.4h-1.7c0.2-0.1,0.3-0.2,0.3-0.4v-5.8 c0-0.2-0.1-0.4-0.3-0.4h1.7C20.1,34,20,34.2,20,34.4v2.3h2.9v-2.3C22.9,34.2,22.8,34,22.7,33.9z M27.5,33.9 c-0.2,0.1-0.3,0.2-0.3,0.4v5.8c0,0.2,0.1,0.3,0.3,0.4h-1.7c0.2-0.1,0.3-0.2,0.3-0.4v-5.8c0-0.2-0.1-0.4-0.3-0.4H27.5z M34.6,34.4 l0.1,1.6c-0.5-1.3-1.6-1.6-2.1-1.6c-1.6,0-2.5,1.2-2.5,2.8c0,1.3,0.6,3,2.6,3c0.2,0,0.8,0,1.2-0.3v-1.7c0-0.2-0.1-0.4-0.3-0.5h1.7 c-0.1,0.1-0.3,0.2-0.3,0.5v1.5c0,0.2,0.1,0.4,0.2,0.4c-0.8,0.5-2.1,0.7-2.8,0.7c-1.8,0-3.5-1.3-3.5-3.4c0-1.7,1.2-3.4,3.6-3.4 C33.1,33.8,33.9,34,34.6,34.4z M41.4,40.1c0.1,0.2,0.2,0.3,0.5,0.5h-2c0.3-0.1,0.3-0.3,0.2-0.5c0-0.1-0.3-0.7-0.5-1.3h-2.3 c-0.3,0.7-0.5,1.3-0.5,1.3c-0.1,0.3,0,0.4,0.2,0.5h-1.3c0.3-0.2,0.3-0.3,0.4-0.5c0.2-0.4,2.6-6.4,2.6-6.4S41.4,40.1,41.4,40.1z M39.3,38.2c-0.4-1.1-1-2.4-1-2.4l-0.9,2.4H39.3z M47.1,34.4c0-0.2-0.1-0.4-0.3-0.4h1c-0.1,0.1-0.3,0.2-0.3,0.4v6.5l-4.4-5.6v4.9 c0,0.2,0.1,0.3,0.3,0.4h-1c0.1-0.1,0.3-0.2,0.3-0.4v-5.2c0-0.4,0-0.4-0.2-0.6c-0.1-0.1-0.2-0.3-0.4-0.4h1.6l3.4,4.3V34.4z M55.4,38.6c0,1.2-1,2.1-2.2,2.1c-0.8,0-1.5-0.3-1.8-0.5l0-1.6c0.2,0.7,0.7,1.6,1.7,1.6c0.9,0,1.2-0.7,1.2-1.2c0-0.9-0.8-1-1.6-1.6 s-1.2-1-1.2-1.8c0-1.3,1.2-1.8,2-1.8c0.3,0,0.9,0.1,1.4,0.4l0,1.5c-0.1-0.5-0.7-1.3-1.6-1.3c-0.7,0-1,0.5-1,0.9 c0,0.6,0.4,0.8,1.3,1.3C54.6,36.9,55.4,37.3,55.4,38.6z M59.2,34.4v5.7c0,0.2,0.1,0.3,0.3,0.4h-1.7c0.2-0.1,0.3-0.2,0.3-0.4v-5.7 c-0.7,0-1.5,0.1-1.5,0.1c-0.2,0-0.4,0.2-0.5,0.4v-1h5.1v1c-0.1-0.2-0.2-0.4-0.4-0.4C60.7,34.5,59.8,34.4,59.2,34.4z M66,40.1 c0.1,0.2,0.2,0.3,0.5,0.5h-2c0.3-0.1,0.3-0.3,0.2-0.5c0-0.1-0.3-0.7-0.5-1.3h-2.3c-0.3,0.7-0.5,1.3-0.5,1.3c-0.1,0.3,0,0.4,0.2,0.5 h-1.3c0.3-0.2,0.3-0.3,0.4-0.5c0.2-0.4,2.6-6.4,2.6-6.4L66,40.1z M63.9,38.2c-0.4-1.1-1-2.4-1-2.4L62,38.2H63.9z M68.8,34.4v5.7 c0,0.2,0.1,0.3,0.3,0.4h-1.7c0.2-0.1,0.3-0.2,0.3-0.4v-5.7c-0.7,0-1.5,0.1-1.5,0.1c-0.2,0-0.4,0.2-0.5,0.4v-1h5.1v1 c-0.1-0.2-0.2-0.4-0.4-0.4L68.8,34.4z M75.6,34.8c-0.2-0.3-0.4-0.3-0.7-0.3h-1.6v2.3h1.4c0.1,0,0.3-0.2,0.3-0.3v1 c0-0.1-0.2-0.3-0.3-0.3h-1.4v2.9c0.2,0,0.8,0.1,1.2,0c0.8,0,1.2,0,1.5-0.6l-0.2,1.1h-4c0.2-0.1,0.3-0.2,0.3-0.4v-5.8 c0-0.2-0.1-0.4-0.3-0.4h3.7L75.6,34.8z M0.1,42.3h76.1v0.5H0.1V42.3z"></path> </svg> 