<?xml version="1.0" encoding="UTF-8"?> <svg xmlns="http://www.w3.org/2000/svg" xmlns:xlink="http://www.w3.org/1999/xlink" width="122px" height="66px" viewBox="0 0 122 66"><title>Group 25</title><desc>Created with Sketch.</desc><defs><polygon id="path-1" points="0.615671523 0.146443793 11.025155 0.146443793 11.025155 12.771261 0.615671523 12.771261"></polygon><polygon id="path-3" points="0.443372185 0.131969697 88.9590278 0.131969697 88.9590278 47.3647757 0.443372185 47.3647757"></polygon></defs><g id="Page-1" stroke="none" stroke-width="1" fill="none" fill-rule="evenodd"><g id="Desktop-Homepage" transform="translate(-160.000000, -32.000000)"><g id="Group-25" transform="translate(160.000000, 32.000000)"><polygon id="Fill-1" fill="#FFFFFF" points="9.10007256 54 6.57146844 60.1926857 6.53591561 60.1926857 3.95361947 54 0 54 0 66 2.93854998 66 2.93854998 58.3755429 2.97482838 58.3755429 5.41418764 64.3837714 7.60467712 64.3837714 10.0258972 58.3590857 10.0621756 58.3590857 10.0621756 66 13 66 13 54"></polygon><g id="Group-24" transform="translate(14.000000, 0.000000)"><path d="M5.68952583,63.4249202 C5.97061192,63.4249202 6.23953907,63.3837683 6.49702252,63.3028837 C6.75450596,63.221999 6.9826649,63.0999625 7.18149934,62.9374837 C7.38033377,62.7750049 7.54197616,62.5628601 7.66428079,62.3017587 C7.78801589,62.0406574 7.84952583,61.7355661 7.84952583,61.387904 L7.84952583,57.7133284 C7.84952583,57.3883708 7.78801589,57.1010174 7.66428079,56.8512683 C7.54197616,56.6022287 7.38033377,56.3900839 7.18149934,56.2155433 C6.9826649,56.0417123 6.74806887,55.9111616 6.47914172,55.8238913 C6.21021457,55.736621 5.92912848,55.6933407 5.63731391,55.6933407 C5.35622781,55.6933407 5.08658543,55.7309449 4.82981722,55.806863 C4.57233377,55.8820715 4.34059868,56.004108 4.13604238,56.1715534 C3.93148609,56.3404179 3.76984371,56.5518532 3.65326093,56.8079879 C3.53596291,57.0627036 3.47731391,57.3706329 3.47731391,57.7310663 L3.47731391,61.3701662 C3.47731391,62.0314337 3.68544636,62.5401556 4.10099603,62.8942033 C4.51583046,63.2482511 5.04653245,63.4249202 5.68952583,63.4249202 M5.68952583,65.9848485 C4.98788344,65.9848485 4.3141351,65.8975782 3.67114172,65.7237471 C3.02671788,65.5492066 2.45596291,65.2795911 1.95887682,64.9141911 C1.46179073,64.5480816 1.06698278,64.078383 0.77445298,63.5029668 C0.481923179,62.9289695 0.336015894,62.2407405 0.336015894,61.4396986 L0.336015894,57.8523933 C0.336015894,57.0627036 0.484784106,56.3751841 0.783035762,55.7891251 C1.08200265,55.2030661 1.47609536,54.7127916 1.96817483,54.317592 C2.45953907,53.9223925 3.02385695,53.629363 3.66184371,53.4385036 C4.29983046,53.2462252 4.95212185,53.1511502 5.61943311,53.1511502 C6.32179073,53.1511502 6.99410861,53.2433871 7.63853245,53.4292799 C8.28152583,53.6151727 8.85228079,53.9025261 9.34936689,54.29134 C9.84645298,54.6808635 10.2448371,55.1682999 10.5430887,55.7536494 C10.8413404,56.3404179 10.9908238,57.0336136 10.9908238,57.8346554 L10.9908238,61.2828959 C10.9908238,62.0959995 10.8384795,62.7984189 10.534506,63.390154 C10.2305325,63.9818891 9.82642649,64.470035 9.32361854,64.8531729 C8.82009536,65.2363107 8.25220132,65.520826 7.62065166,65.7060093 C6.98838675,65.8919021 6.34467815,65.9848485 5.68952583,65.9848485" id="Fill-2" fill="#FFFFFF"></path><polygon id="Fill-4" fill="#FFFFFF" points="12.8166675 53.3600313 15.8535417 53.3600313 20.6284291 60.3778392 20.6634755 60.3778392 20.6634755 53.3600313 23.5601642 53.3600313 23.5601642 65.7758255 20.6455947 65.7758255 15.7484026 58.4798879 15.7133563 58.4798879 15.7133563 65.7758255 12.8166675 65.7758255"></polygon><g id="Group-8" transform="translate(25.033113, 53.213587)"><mask id="mask-2" fill="white"><use xlink:href="#path-1"></use></mask><g id="Clip-7"></g><path d="M5.77678411,12.7715448 C4.98073113,12.7715448 4.26406887,12.6778889 3.62608212,12.4919961 C2.98809536,12.3075223 2.44738013,12.0222975 2.00250596,11.6391597 C1.55763179,11.2560218 1.21503576,10.774971 0.975433113,10.1938786 C0.735115232,9.61420528 0.615671523,8.93449039 0.615671523,8.15615298 L0.615671523,0.146443793 L3.73980397,0.146443793 L3.73980397,7.94755572 C3.73980397,8.64429896 3.92147285,9.19559172 4.2848106,9.60214353 C4.64743311,10.0079858 5.17956556,10.2116165 5.88192318,10.2116165 C6.54923444,10.2116165 7.06062517,10.0193381 7.41824106,9.63690974 C7.77514172,9.25377191 7.95323444,8.69112691 7.95323444,7.94755572 L7.95323444,0.146443793 L11.025155,0.146443793 L11.025155,8.03411649 C11.025155,8.81245389 10.8906914,9.49500684 10.621049,10.0803563 C10.3521219,10.6671248 9.98091656,11.1602374 9.50671788,11.5611131 C9.03323444,11.9612792 8.47678411,12.2635324 7.83951258,12.4664536 C7.2008106,12.6693747 6.51347285,12.7715448 5.77678411,12.7715448" id="Fill-6" fill="#FFFFFF" mask="url(#mask-2)"></path></g><polygon id="Fill-9" fill="#FFFFFF" points="38.1473166 53.3600313 42.0438993 53.3600313 44.5901245 59.7676567 44.6251709 59.7676567 47.1177536 53.3600313 50.9621245 53.3600313 50.9621245 65.7758255 48.0654358 65.7758255 48.0654358 57.8697054 48.0303894 57.8697054 45.6429457 64.1042094 43.4836609 64.1042094 41.0790517 57.8874433 41.0440053 57.8874433 41.0440053 65.7758255 38.1473166 65.7758255"></polygon><polygon id="Fill-11" fill="#FFFFFF" points="53.1029563 53.3600313 62.3194331 53.3600313 62.3194331 55.8851934 56.2456848 55.8851934 56.2456848 58.2528433 61.3538702 58.2528433 61.3538702 60.760977 56.2456848 60.760977 56.2456848 63.2329255 62.3551947 63.2329255 62.3551947 65.7758255 53.1029563 65.7758255"></polygon><polygon id="Fill-13" fill="#FFFFFF" points="64.3029139 53.3600313 67.3397881 53.3600313 72.1146755 60.3778392 72.1497219 60.3778392 72.1497219 53.3600313 75.0464106 53.3600313 75.0464106 65.7758255 72.1318411 65.7758255 67.234649 58.4798879 67.1996026 58.4798879 67.1996026 65.7758255 64.3029139 65.7758255"></polygon><polygon id="Fill-15" fill="#FFFFFF" points="80.1015258 55.8502853 76.5554066 55.8502853 76.5554066 53.3598894 86.7903735 53.3598894 86.7903735 55.8502853 83.2442543 55.8502853 83.2442543 65.7756836 80.1015258 65.7756836"></polygon><path d="M92.9561722,61.0219365 L91.5164106,56.5292906 L91.4641987,56.5292906 L90.0072715,61.0219365 L92.9561722,61.0219365 Z M89.9543444,53.3421515 L93.307351,53.3421515 L97.6960132,65.7756836 L94.4839073,65.7756836 L93.7286225,63.4598283 L89.2519868,63.4598283 L88.4795364,65.7756836 L85.512755,65.7756836 L89.9543444,53.3421515 Z" id="Fill-17" fill="#FFFFFF"></path><polygon id="Fill-19" fill="#FFFFFF" points="98.9071152 53.3600313 102.049844 53.3600313 102.049844 63.2329255 107.999857 63.2329255 107.999857 65.7758255 98.9071152 65.7758255"></polygon><g id="Group-23" transform="translate(2.145695, 0.000000)"><mask id="mask-4" fill="white"><use xlink:href="#path-3"></use></mask><g id="Clip-22"></g><path d="M56.6448556,31.9498636 L51.8435046,44.5572268 L37.5338623,44.5522602 L32.7239285,31.966892 L25.0995576,44.5529697 L4.57383576,44.5572268 L20.7252,2.95200603 L39.2682993,2.95200603 L43.6884318,10.4345459 L41.7809086,13.5947235 L32.6259417,13.5947235 L32.6209351,13.594014 L34.7451735,16.9067372 L38.7690675,18.5421681 L36.4445642,22.4090222 L36.4459947,22.4090222 L36.4288291,25.5826805 L44.6890411,21.3227555 L52.9642728,25.5606856 L52.9642728,22.4111507 L52.9606967,22.4090222 L50.6390543,18.5457157 L54.7394781,16.9067372 L56.7800344,13.5961426 L56.7821801,13.5947235 L47.6250675,13.5947235 L45.6732,10.4203557 L50.1004848,2.9456204 L68.6428689,2.94845846 L84.8292795,44.5572268 L64.2606437,44.5501316 L56.6448556,31.9498636 Z M44.6818887,10.8063315 L46.9513192,14.497226 L52.8770146,14.497226 L53.5099947,14.497226 L48.2358755,16.5860367 L49.6520344,18.9402058 L50.5203258,20.3869058 L50.8858093,20.9942502 L44.6718755,17.9312761 L38.5215974,20.9907027 L38.9063921,20.3500111 L39.7532265,18.9416248 L41.1693854,16.5860367 L35.8952662,14.497226 L36.4760344,14.497226 L42.454657,14.497226 L44.6818887,10.8063315 Z M70.5818623,0.13310492 L48.4754781,0.131685891 L44.6754517,6.54569697 L40.8918755,0.139490551 L18.7776238,0.139490551 L0.443372185,47.35839 L26.7016768,47.3647757 L32.142445,38.3830316 L35.5748424,47.3640661 L53.801094,47.3640661 L57.2249086,38.3801935 L62.6535179,47.3619376 L88.9590278,47.3590995 L70.5818623,0.13310492 Z" id="Fill-21" fill="#FFFFFF" mask="url(#mask-4)"></path></g></g></g></g></g></svg> 