<svg xmlns="http://www.w3.org/2000/svg" xmlns:xlink="http://www.w3.org/1999/xlink" id="ARTWORK" x="0px" y="0px" viewBox="0 0 229.7 278" style="enable-background:new 0 0 229.7 278;" xml:space="preserve"> <style type="text/css"> .st0{fill:#FFFFFF;} </style> <path class="st0" d="M38.3,18.5c9.8,4.5,16.1,10.2,17.2,11C55,27,53.1,14.8,52,7.2c5.7,4,19,13.2,23.3,16.2C77.1,17.9,83.2,0,83.2,0 s11.1,18,13,20.9c2.3-2.4,15.6-17.2,19.1-21c0.6,8.5,1.4,20.7,1.6,22.5c0.7-0.9,5.8-8,14.3-14.6c-3.7,7.3-5.5,17.3-6.3,25.4 c-8.4-2.3-17.2-3.6-26.4-3.6c-17.5,0-34,4.6-48.2,12.7C47.7,34.6,43.7,24.9,38.3,18.5z M140.5,119.9l0-12.5c0,0-5.6-1.8-11.6-6.4 c-12,1.8-26.5,13.9-26.5,13.9s4.9,9.3,10.3,19.4C122.1,135.5,136,123.6,140.5,119.9z M152.6,142.6c0,0-1-5.2-5.1-10l-9.4,0.2 c0,0-12.6,10.9-20.3,11.1c0,0,4.2,7.9,6.4,12c4.2-0.9,11.7-4.3,14.7-7.8c0,0,2,6.4,1.6,14C144.7,159.7,150.5,153.1,152.6,142.6z M156.4,101.4c-4.7,4-8.7,6.2-8.7,6.2l0,12.6c3.4,3.8,6.7,6.9,9.2,12.6C161.7,124.2,160.8,111.7,156.4,101.4z M157.4,90.2l0.7-5.7 c0.2-3.2-0.6-8.4-5-13.8c-5.5-6.1-19.2-16-25.8-18.4c0,0-0.5,6.3-2.8,9.4c-13.1-9.4-19.5-11.8-19.5-11.8c-14.4,2-23.6,7.6-28.6,11.9 l4.4,3.7c-8.7,2.7-14.3,10.1-14.3,10.1c0.1,0.1,7.7,1.2,7.7,1.2s-0.8,9,10.5,14.7c9.7,4.8,23.5-1.2,36.6,4.1 c-8.6-9.9-14.5-14.4-14.5-14.4s-3.4-0.7-5.8-0.7c-3,0-7.5,0.6-12.4-1.3c-2.3-0.9-5.1-2.5-7.2-3.9c0,0,6-6.2,14.9-7.6 c0,0,8,2.2,14.3,6.9c4.2-4.1,8.6-4,8.6-4s-4.3,4.1-3,8.9c6.3,5.6,13.1,13.7,13.1,13.7c7-3.8,22.1-2.9,25.2,0.7 c-3.9-5.1-9.6-9.4-14-13c-0.5-1.9-5.3-8.6-6.1-9.2c0,0,4.6,1.4,8.6,5.1c1.2-1.7,3.4-3.4,6.3-4.1c3.1,2.6,3.6,6.5,3.5,7.2 c-1.4,1.6-2.7,2.3-2.7,2.3L157.4,90.2l0.7-5.7 M164.8,94.9c11.2,20.8,14,45.6,6.2,70.4c-0.5-0.5-6.4-7.2-8.9-9.9 c-1.6,24.2-8.7,43-29.5,58.9c0,0-2-7.6-3.1-12.4c-34.3,25.1-63.8,13.6-72.1,9.5c6.4-29.4,1.4-46.3-2.8-59.2 c-9.1,15-18.5,26.7-27.8,34.5c-6.4-14.9-6.9-42.6-1.7-59c-1.7,0.5-11.8,3.6-17.4,5.3c2.2-15,12.2-35.1,22.7-45.1 c-1.8-0.3-7.2-1.1-11.5-1.8c2.6-5.3,10.2-15.2,21.9-24.5c-0.3,6.5,2.1,14.4,9.5,18.1c-4.7-8.2-5.3-18.4-0.4-23.7 c4.9-5.3,13.2-3.5,18.4,0.6c-1-2.9-3.1-6.2-6.2-8.4c14.5-6.8,32.1-10.7,52.1-7.6c3.1,2.7,6.4,6.5,8.2,8.8c0.1-1.7-0.2-4.9-0.7-7.3 c8.2,1.9,16.7,5.1,25.5,9.6c-15.7-15.7-47.6-20.4-74.3-12.8c-6.2,1.8-12.2,4.2-17.7,6.9c-5.9,0.1-9.6,3.7-11.8,6.8 C26.3,64.1,13.9,79,7.8,91.5c1.3,0.3,5.4,0.8,9.1,1.4C9.3,103.8-0.6,124.3,0,142.8c1.7-0.5,11-3.4,15.6-4.9 c-2.4,16.3-1.7,43.6,8.8,59.3c13.3-9.4,21-19.3,27.4-28.3c1.6,8,3.3,22.3-2.4,46c4.6,3.5,37.9,21.1,75.7-1.8l3.2,12.4l4.1-2.6 c23-14.9,31.8-35,34.8-51.4c1.1,1.2,5.2,5.7,6.7,7.3C179.7,163,191.2,125.2,164.8,94.9z M101.7,277.9l-1.4-15.9l3.8-0.3l0.7,2.3 c0.6-1.5,1.9-2.7,3.8-2.9c0.4,0,0.8,0,1.3,0.1l0.4,4.2c-0.6-0.1-1.1-0.1-1.6-0.1c-2.2,0.2-3.5,1.7-3.3,4.2l0.7,8L101.7,277.9z M111.6,269.2c-0.9-4.4,1.5-8.9,6.6-10c3.8-0.8,8.3,1.3,9.4,6.6c0.1,0.4,0.2,0.9,0.2,1.5l-11.5,2.3c0.8,1.7,2.6,2.5,4.5,2.1 c1.7-0.3,2.9-1.3,3.8-2.7l3.2,2.1c-1.3,2.3-3.5,3.8-6.2,4.4C116.8,276.7,112.6,274.1,111.6,269.2z M118.9,263.1 c-1.8,0.4-3.1,1.7-3.1,3.5l7.2-1.5C122.3,263.5,120.6,262.7,118.9,263.1z M132.6,273.1l-5.9-14.8l3.6-1.4l1.2,1.8c0,0,0-2.7,2.7-3.8 c1.7-0.7,3.4-0.6,5.1,0.6l0.1,0.1l0.1-0.2c0.6-2.6,2.4-3.5,3.4-3.9c3.2-1.3,6.3,0.3,7.6,3.6l3.8,9.5l-4.1,1.6l-3.5-8.8 c-0.6-1.6-1.9-2.3-3.3-1.7c-1.6,0.6-2,2-1.3,3.6l3.5,8.7l-4.1,1.6l-3.5-8.8c-0.6-1.6-1.9-2.3-3.3-1.7c-1.6,0.6-2.1,2-1.4,3.7 l3.5,8.7L132.6,273.1z M150.3,245.4c-1.4,0.8-2.9,0.3-3.7-1c-0.8-1.4-0.3-3,1-3.7c1.4-0.8,2.9-0.3,3.7,1 C152.1,243,151.7,244.6,150.3,245.4z M157.3,262.3l-7.8-13.9l3.8-2.2l7.8,13.9L157.3,262.3z M159.4,252.3c-2.6-3.7-2.2-8.8,2-11.8 c3.2-2.3,8.1-2.2,11.3,2.2c0.2,0.3,0.6,0.8,0.8,1.3l-9.5,6.8c1.4,1.2,3.4,1.2,5,0.1c1.4-1,2.2-2.4,2.4-4l3.8,0.7 c-0.3,2.6-1.7,4.9-3.9,6.5C167.2,257,162.2,256.3,159.4,252.3z M163.5,243.7c-1.5,1.1-2.1,2.9-1.4,4.4l6-4.3 C166.9,242.7,165,242.7,163.5,243.7z M179.8,247l-10.8-11.8l2.8-2.6l1.9,1.4c-0.5-1.6-0.1-3.3,1.3-4.6c0.3-0.3,0.7-0.5,1.1-0.7 l2.9,3.1c-0.5,0.3-0.9,0.6-1.3,0.9c-1.6,1.5-1.8,3.5,0,5.3l5.4,5.9L179.8,247z M174.3,218.8l2.9-3.7l15.7,12.1l6.3-8.1l3.5,2.7 l-9.2,11.9L174.3,218.8z M196.6,216.6c-3.9-2.2-5.7-7.1-3.1-11.6c2-3.4,6.4-5.4,11.2-2.7c0.4,0.2,0.8,0.5,1.3,0.9l-5.8,10.1 c1.8,0.5,3.6-0.3,4.6-2c0.9-1.5,1-3.1,0.5-4.6l3.7-1c0.8,2.5,0.5,5.2-0.8,7.5C205.7,217.6,200.9,219.1,196.6,216.6z M196.8,207.1 c-0.9,1.6-0.8,3.5,0.6,4.6l3.7-6.4C199.4,204.8,197.7,205.5,196.8,207.1z M216.2,196.9c-1.5,3.9-6.5,6-10.7,4.4 c-4.1-1.6-6.3-6.4-4.8-10.4c0.9-2.2,2.2-3.4,4-3.8l-1.8-1.2l1.4-3.6l14.9,5.8l-1.4,3.6l-2-0.3C216.7,192.8,216.9,194.8,216.2,196.9z M204.7,191.5c-0.9,2.2,0.2,4.6,2.4,5.4c2.2,0.8,4.6-0.2,5.4-2.4c0.8-2.2-0.2-4.5-2.4-5.3C207.8,188.3,205.5,189.3,204.7,191.5z M222.1,177.1c-0.9,4.4-5.3,7.2-9.9,6.2c-4.6-1-7.3-5.3-6.4-9.7c0.4-1.8,1.6-3.3,3.1-3.9l-1.9-0.9l0.8-3.8l14.9,3.1 c2.9,0.6,4.8,1.8,5.9,4.1c0.8,1.7,1.2,3.9,0.7,6.3c-0.7,3.2-2.3,5.3-4.5,6.9l-2.8-3.1c1.3-0.9,2.7-2.3,3.1-4.3c0.7-3.2-0.6-5-3-5.5 l-1.1-0.2C222.2,173.8,222.4,175.4,222.1,177.1z M209.8,173.9c-0.5,2.3,0.9,4.5,3.3,5c2.3,0.5,4.5-0.9,5-3.2c0.5-2.3-1-4.4-3.3-4.9 C212.5,170.2,210.3,171.6,209.8,173.9z M216.5,164l-8.5-0.4l0.2-4.4l8.2,0.4c2.8,0.1,4-1.1,4.1-3.2c0.1-2-1.2-3.5-3.8-3.6l-8.2-0.4 l0.2-4.4l8.5,0.4c5.9,0.3,7.7,4.7,7.5,8.1C224.6,160.1,222.4,164.3,216.5,164z M215.7,146.7c-4.5,0-8.5-3.3-8.5-8.5 c0-3.9,2.9-7.9,8.3-7.9c0.4,0,1,0,1.6,0.1v11.7c1.8-0.4,3-2.1,3-4c0-1.8-0.7-3.1-1.8-4.3l2.7-2.7c2,1.7,3.1,4.2,3.1,6.9 C224.1,143.1,220.7,146.7,215.7,146.7z M211.1,138.4c0,1.8,1.1,3.4,2.8,3.7v-7.4C212.3,135.1,211.1,136.6,211.1,138.4z M82.2,278 v-24.3h7.7c5,0,8.8,3,8.8,8.1c0,5.2-3.7,8.3-8.8,8.3h-3v7.9H82.2z M86.9,265.5h2.7c2.4,0,4.2-1.3,4.2-3.7c0-2.3-1.8-3.6-4.2-3.6 h-2.7V265.5z"></path> </svg>