<svg width="19" height="19" viewBox="0 0 19 19" fill="none" xmlns="http://www.w3.org/2000/svg">
<path d="M18.9663 9.4835C18.9671 7.03346 18.0159 4.67896 16.3135 2.91698C16.3082 2.90818 16.3023 2.8997 16.2959 2.89156C16.2959 2.89156 16.2823 2.89156 16.2764 2.87788C15.4028 1.9762 14.3585 1.2574 13.2043 0.763361C12.0501 0.269321 10.8091 0.00992236 9.55368 0.000279134C8.29824 -0.00936409 7.05344 0.230941 5.8918 0.707193C4.73016 1.18344 3.67492 1.88612 2.78756 2.77427L2.76801 2.78795C2.76162 2.79673 2.75575 2.80587 2.75041 2.81532C1.85043 3.7211 1.14305 4.79964 0.670863 5.986C0.198677 7.17236 -0.0285497 8.442 0.00286477 9.71849C0.0342793 10.995 0.323685 12.2519 0.853657 13.4136C1.38363 14.5753 2.14321 15.6177 3.08666 16.4781C3.08666 16.4781 3.08666 16.4781 3.08666 16.4899C3.10412 16.508 3.12383 16.5237 3.14531 16.5368C4.82297 18.0502 6.98778 18.9117 9.24656 18.9648C9.28847 18.9879 9.33555 19 9.3834 19C9.43126 19 9.47833 18.9879 9.52024 18.9648C11.9043 18.9583 14.1977 18.0505 15.9401 16.4234C15.9518 16.4164 15.9629 16.4086 15.9734 16.3999C15.9734 16.3999 15.9734 16.3882 15.9832 16.3843C16.9259 15.4992 17.6771 14.4302 18.1902 13.2432C18.7033 12.0562 18.9675 10.7766 18.9663 9.4835ZM15.7427 15.7978C15.0727 15.2243 14.3259 14.7473 13.5239 14.3805C13.9431 12.8921 14.162 11.3543 14.1749 9.80801H18.3799C18.2967 12.0678 17.3534 14.2105 15.7427 15.7978ZM0.590246 9.22154C0.654198 7.05979 1.50666 4.99609 2.98696 3.41939C3.67365 4.08911 4.45803 4.6507 5.31329 5.08497C4.98017 6.44024 4.80696 7.82987 4.7972 9.22545L0.590246 9.22154ZM5.86849 5.34301C6.89171 5.77756 7.98372 6.02773 9.09408 6.08197V9.22154H5.37976C5.39411 7.91428 5.55808 6.61297 5.86849 5.34301ZM16.077 3.52104C17.5006 5.08532 18.3175 7.10737 18.3799 9.22154H14.1729C14.1659 7.85666 14.0033 6.49703 13.6881 5.16903C14.5643 4.74568 15.3701 4.18983 16.077 3.52104ZM9.68055 14.1108C10.7414 14.1196 11.7921 14.3182 12.783 14.6972C12.0655 16.8144 10.9356 18.2317 9.68055 18.3666V14.1108ZM9.68055 13.5243V9.80997H13.5904C13.5722 11.2766 13.3612 12.7344 12.9628 14.1459C11.9142 13.746 10.8028 13.5355 9.68055 13.5243ZM13.5904 9.2235H9.68055V6.09565C10.8584 6.08537 12.0239 5.85531 13.1173 5.4173C13.4151 6.6639 13.5725 7.93993 13.5864 9.22154L13.5904 9.2235ZM9.68055 5.50918V0.600418C11.049 0.747036 12.2669 2.42825 12.9667 4.84451C11.9233 5.2715 10.808 5.49575 9.68055 5.50527V5.50918ZM9.09408 0.635606V5.49354C8.03659 5.43813 6.99766 5.19314 6.02683 4.77023C6.69541 2.5084 7.82339 0.907338 9.09408 0.631697V0.635606ZM9.09408 9.81192V13.536C8.04243 13.5894 7.00708 13.818 6.03074 14.2124C5.61915 12.7798 5.40152 11.2985 5.38367 9.80801L9.09408 9.81192ZM9.09408 14.1264V18.3353C7.92113 18.0851 6.8909 16.7284 6.21059 14.7735C7.12869 14.3974 8.10338 14.178 9.09408 14.1244V14.1264ZM7.57316 18.1691C6.16758 17.8591 4.85858 17.2116 3.75914 16.2827C4.33467 15.7835 4.97198 15.3604 5.6554 15.0237C6.13631 16.396 6.79706 17.4869 7.57316 18.1691ZM13.3421 14.9435C14.0493 15.2737 14.7099 15.6957 15.3068 16.1986C14.1886 17.1718 12.8444 17.8493 11.397 18.1691C12.1887 17.4732 12.8592 16.355 13.3421 14.9435ZM15.6665 3.09683C15.0272 3.6974 14.3025 4.20004 13.5161 4.58842C13.0254 2.91111 12.2845 1.58373 11.3891 0.795908C13.0017 1.1503 14.4835 1.94708 15.6684 3.09683H15.6665ZM5.4775 4.4985C4.71816 4.10111 4.02021 3.59609 3.40531 2.99908C4.57092 1.90326 6.01094 1.14273 7.57316 0.797863C6.69345 1.56614 5.96232 2.86615 5.4775 4.4985ZM0.590246 9.80801H4.7972C4.8108 11.3852 5.03969 12.9532 5.4775 14.4685C4.69894 14.8438 3.97542 15.324 3.32711 15.8956C1.65681 14.3003 0.67489 12.1162 0.590246 9.80801Z" fill="#F5F9FC"/>
</svg>
