<svg width="32" height="19" viewBox="0 0 32 19" fill="none" xmlns="http://www.w3.org/2000/svg">
<rect y="4.84814" width="25.0385" height="12.8986" fill="#F5F9FC"/>
<rect x="9.38867" y="4.76904" width="15.649" height="1.04327" fill="#B2372A"/>
<rect x="9.38867" y="6.85571" width="15.649" height="1.04327" fill="#B2372A"/>
<rect x="9.38867" y="8.94238" width="15.649" height="1.04327" fill="#B2372A"/>
<rect x="9.38867" y="11.0288" width="15.649" height="1.04327" fill="#B2372A"/>
<rect y="13.1152" width="25.0385" height="1.04327" fill="#B2372A"/>
<rect y="15.2019" width="25.0385" height="1.04327" fill="#B2372A"/>
<rect y="17.2883" width="25.0385" height="1.04327" fill="#B2372A"/>
<rect y="4.76904" width="9.38942" height="7.30288" fill="#0F0FFF"/>
<path d="M29.4495 3.59334L30.1432 3.03838L30.6426 3.8847L29.7963 4.23155L30.6288 4.60615L30.157 5.42473L29.4495 4.85589L29.5604 5.77158H28.5615L28.6864 4.85589L27.9927 5.42473L27.4932 4.5784L28.3256 4.23155L27.4793 3.8847L27.9788 3.03838L28.6725 3.59334L28.5615 2.67765H29.5604L29.4495 3.59334Z" fill="white"/>
</svg>
