<?xml version="1.0" encoding="UTF-8"?> <svg xmlns="http://www.w3.org/2000/svg" width="266" height="31" viewBox="0 0 266 31" fill="none"><path d="M35.2788 1.1416H29.0273V30.0169H35.2788V1.1416Z" fill="#F5F9FC"></path><path d="M49.0155 6.97394H40.3623V1.1416H63.9315V6.97394H55.2784V30.0169H49.0155V6.97394Z" fill="#F5F9FC"></path><path d="M89.6954 30.0825V13.4369L81.8965 19.753L68.1143 8.51409V0.704102L81.9271 11.9972L95.7438 0.704102V30.0864H89.6954V30.0825ZM68.1143 30.0825V12.5894L74.1627 17.489V30.0825H68.1143Z" fill="#F5F9FC"></path><path d="M169.808 30.0904V1.1416H172.405V27.6174H182.23V30.0904H169.808Z" fill="#F5F9FC"></path><path d="M196.851 5.42984L201.754 18.0311H191.775L196.851 5.42984ZM197.031 0L184.447 30.0905H187.09L190.886 20.2835H202.585L206.251 30.0905H209.089L197.031 0Z" fill="#F5F9FC"></path><path d="M212.3 30.0904V1.1416H217.268C219.447 1.1416 221.018 1.2461 221.975 1.45895C222.941 1.67181 223.764 2.03561 224.454 2.55034C225.396 3.27793 226.124 4.16033 226.618 5.20527C227.12 6.25796 227.357 7.41513 227.357 8.67681C227.357 10.221 226.959 11.5369 226.166 12.6089C225.373 13.6925 224.27 14.4085 222.879 14.7491C224.714 15.02 226.158 15.7708 227.204 16.986C228.246 18.1974 228.767 19.73 228.767 21.5915C228.767 22.9461 228.564 24.1575 228.162 25.2063C227.748 26.259 227.151 27.1723 226.312 27.9386C225.488 28.732 224.484 29.2854 223.301 29.6105C222.125 29.9279 220.125 30.0943 217.291 30.0943H212.288H212.3V30.0904ZM214.897 14.0099H218.145C220.531 14.0099 222.217 13.6074 223.213 12.8218C224.193 12.0361 224.687 10.7125 224.687 8.86645C224.687 6.87718 224.209 5.48005 223.243 4.65571C222.286 3.84685 220.585 3.42887 218.145 3.42887H214.897V14.0099ZM214.897 27.8109H218.229C220.118 27.8109 221.428 27.7257 222.136 27.5709C222.864 27.42 223.462 27.1452 223.964 26.7621C224.576 26.2861 225.063 25.6359 225.431 24.796C225.798 23.964 225.978 23.0699 225.978 22.1179C225.978 20.9607 225.775 19.9467 225.373 19.0605C224.967 18.1897 224.408 17.524 223.68 17.0944C223.194 16.808 222.604 16.5952 221.937 16.4752C221.271 16.3475 220.217 16.2855 218.792 16.2855H214.901V27.8109H214.897Z" fill="#F5F9FC"></path><path d="M232.459 24.8114L234.616 23.6465C235.022 25.0243 235.707 26.0809 236.696 26.8394C237.684 27.5941 238.867 27.9734 240.243 27.9734C242.001 27.9734 243.364 27.4586 244.345 26.406C245.326 25.3687 245.82 23.9329 245.82 22.0869C245.82 20.74 245.49 19.6138 244.832 18.7276C244.165 17.8335 242.744 16.8157 240.572 15.643C237.795 14.153 235.945 12.8449 235.025 11.7187C234.114 10.5847 233.646 9.23017 233.646 7.64341C233.646 5.65414 234.313 4.04416 235.638 2.79409C236.964 1.55177 238.684 0.924805 240.798 0.924805C242.185 0.924805 243.387 1.22668 244.406 1.81881C245.441 2.41095 246.272 3.29334 246.908 4.47374L244.969 5.65414C244.563 4.86076 243.997 4.24927 243.261 3.82356C242.529 3.40945 241.66 3.19659 240.649 3.19659C239.293 3.19659 238.209 3.60296 237.408 4.40795C236.6 5.21681 236.194 6.31207 236.194 7.67437C236.194 9.63267 237.795 11.4555 240.986 13.1429C241.568 13.4603 242.012 13.6886 242.311 13.855C244.663 15.1631 246.234 16.3977 247.026 17.5626C247.819 18.7276 248.218 20.233 248.218 22.0907C248.218 24.587 247.49 26.5762 246.046 28.043C244.594 29.5098 242.633 30.2529 240.139 30.2529C238.32 30.2529 236.78 29.7923 235.493 28.8829C234.206 27.9772 233.194 26.6227 232.463 24.8153" fill="#F5F9FC"></path><path d="M123.703 30.0823H129.33L123.416 18.1467V18.1235H123.4L114.605 0.371094L99.835 30.0785H105.554L108.975 22.8103H120.183L123.699 30.0785H123.703V30.0823ZM111.196 18.1235L114.498 11.076L117.911 18.1235H111.196Z" fill="#F5F9FC"></path><path d="M152.179 1.07198V17.5589L133.44 0.832031V30.2298H139.496V14.2925L158.224 30.9999V1.07198H152.179Z" fill="#F5F9FC"></path><path d="M7.04817 30.2212V25.341L11.2426 22.1055L17.3714 30.2212H25.2087L12.5948 13.5215L0 23.2704V30.2212H0.73163H7.04817Z" fill="#F5F9FC"></path><path d="M7.04817 1.18775H0V19.8497L24.297 1.11035H14.5637L7.04817 6.90398V1.18775Z" fill="#F5F9FC"></path><path d="M253.045 2.46053H251V1H256.858V2.46053H254.777V8.70059H253.045V2.46053Z" fill="#F5F9FC"></path><path d="M264.17 5.75239C264.135 4.82542 264.103 3.70854 264.103 2.58714H264.067C263.83 3.56837 263.513 4.66716 263.217 5.567L262.291 8.57398H260.944L260.129 5.59413C259.878 4.68977 259.619 3.5955 259.44 2.58714H259.417C259.373 3.62715 259.337 4.81638 259.283 5.775L259.149 8.70059H257.556L258.044 1H260.339L261.087 3.57289C261.324 4.46368 261.561 5.4223 261.731 6.32665H261.767C261.982 5.43586 262.241 4.41846 262.492 3.56385L263.307 1.00452H265.558L265.974 8.70511H264.291L264.179 5.75691L264.17 5.75239Z" fill="#F5F9FC"></path></svg> 